<svg width="150" height="150" viewBox="0 0 150 150" fill="none" xmlns="http://www.w3.org/2000/svg">
<rect width="150" height="150" rx="20" fill="white"/>
<path d="M60.5003 104.653H54.4014C53.5184 104.653 53.0687 103.592 53.6828 102.958L131.36 22.6954C131.974 22.0609 131.524 21 130.641 21H54.8545C54.3022 21 53.8545 21.4477 53.8545 22V49.341C53.8545 49.8933 54.3022 50.341 54.8545 50.341H81.042" stroke="#404040" stroke-width="6" stroke-linecap="round"/>
<path d="M108.229 104.653H130.792C131.344 104.653 131.792 104.206 131.792 103.653V78.1851C131.792 77.6328 131.344 77.1851 130.792 77.1851H106.417" stroke="#404040" stroke-width="6" stroke-linecap="round"/>
<path d="M43.5833 50.341V22C43.5833 21.4477 43.1356 21 42.5833 21H18C17.4477 21 17 21.4477 17 22V128C17 128.552 17.4477 129 18 129H96.9583C97.5106 129 97.9583 128.552 97.9583 128V105.653C97.9583 105.101 97.5106 104.653 96.9583 104.653H70.1667" stroke="black" stroke-width="6" stroke-linecap="round"/>
</svg>
