<svg width="101" height="93" viewBox="0 0 101 93" fill="none" xmlns="http://www.w3.org/2000/svg">
<path d="M39 70.5H34.4142C33.5233 70.5 33.0771 69.4229 33.7071 68.7929L97.2929 5.20711C97.9229 4.57715 97.4767 3.5 96.5858 3.5H34.5C33.9477 3.5 33.5 3.94772 33.5 4.5V26C33.5 26.5523 33.9477 27 34.5 27H56" stroke="white" stroke-width="6" stroke-linecap="round"/>
<path d="M78.5 70.5H97C97.5523 70.5 98 70.0523 98 69.5V49.5C98 48.9477 97.5523 48.5 97 48.5H77" stroke="white" stroke-width="6" stroke-linecap="round"/>
<path d="M25 39V4.5C25 3.94772 24.5523 3.5 24 3.5H4C3.44772 3.5 3 3.94771 3 4.5V70.5V89C3 89.5523 3.44772 90 4 90H69C69.5523 90 70 89.5523 70 89V71.5C70 70.9477 69.5523 70.5 69 70.5H47" stroke="#E5E5E5" stroke-width="6" stroke-linecap="round"/>
<path d="M31 42C31 45.3137 28.3137 48 25 48C21.6863 48 19 45.3137 19 42C19 38.6863 21.6863 36 25 36C28.3137 36 31 38.6863 31 42Z" fill="#E5E5E5"/>
<circle cx="77" cy="48" r="6" fill="white"/>
</svg>
