<svg width="99" height="90" viewBox="0 0 99 90" fill="none" xmlns="http://www.w3.org/2000/svg">
<path d="M38 69H33.4142C32.5233 69 32.0771 67.9229 32.7071 67.2929L96.2929 3.70711C96.9229 3.07715 96.4767 2 95.5858 2H33.5C32.9477 2 32.5 2.44772 32.5 3V24.5C32.5 25.0523 32.9477 25.5 33.5 25.5H55" stroke="#404040" stroke-width="3" stroke-linecap="round"/>
<path d="M77.5 69H96C96.5523 69 97 68.5523 97 68V48C97 47.4477 96.5523 47 96 47H76" stroke="#404040" stroke-width="3" stroke-linecap="round"/>
<path d="M24 25.5V3C24 2.44772 23.5523 2 23 2H3C2.44772 2 2 2.44771 2 3V87.5C2 88.0523 2.44772 88.5 3 88.5H68C68.5523 88.5 69 88.0523 69 87.5V70C69 69.4477 68.5523 69 68 69H46" stroke="black" stroke-width="3" stroke-linecap="round"/>
</svg>
